<mxfile host="app.diagrams.net" agent="Mozilla/5.0 (Windows NT 10.0; Win64; x64) AppleWebKit/537.36 (KHTML, like Gecko) Chrome/127.0.0.0 Safari/537.36" version="24.7.7">
  <diagram name="Página-1" id="CggSqtY_3vcPkqHm6eQQ">
    <mxGraphModel dx="1434" dy="780" grid="1" gridSize="10" guides="1" tooltips="1" connect="1" arrows="1" fold="1" page="1" pageScale="1" pageWidth="1400" pageHeight="850" math="0" shadow="1">
      <root>
        <mxCell id="0" />
        <mxCell id="1" parent="0" />
        <mxCell id="rDGSPAEo0IZQt4CO5zlP-39" style="edgeStyle=orthogonalEdgeStyle;rounded=0;orthogonalLoop=1;jettySize=auto;html=1;exitX=0.5;exitY=0;exitDx=0;exitDy=0;entryX=1;entryY=0.5;entryDx=0;entryDy=0;" edge="1" parent="1" source="rDGSPAEo0IZQt4CO5zlP-2" target="rDGSPAEo0IZQt4CO5zlP-22">
          <mxGeometry relative="1" as="geometry" />
        </mxCell>
        <mxCell id="rDGSPAEo0IZQt4CO5zlP-40" style="edgeStyle=orthogonalEdgeStyle;rounded=0;orthogonalLoop=1;jettySize=auto;html=1;exitX=0;exitY=0.5;exitDx=0;exitDy=0;entryX=1;entryY=0.5;entryDx=0;entryDy=0;" edge="1" parent="1" source="rDGSPAEo0IZQt4CO5zlP-2" target="rDGSPAEo0IZQt4CO5zlP-20">
          <mxGeometry relative="1" as="geometry" />
        </mxCell>
        <mxCell id="rDGSPAEo0IZQt4CO5zlP-41" style="edgeStyle=orthogonalEdgeStyle;rounded=0;orthogonalLoop=1;jettySize=auto;html=1;exitX=0.5;exitY=1;exitDx=0;exitDy=0;entryX=1;entryY=0.5;entryDx=0;entryDy=0;" edge="1" parent="1" source="rDGSPAEo0IZQt4CO5zlP-2" target="rDGSPAEo0IZQt4CO5zlP-21">
          <mxGeometry relative="1" as="geometry" />
        </mxCell>
        <mxCell id="rDGSPAEo0IZQt4CO5zlP-2" value="Productos" style="rounded=1;arcSize=10;whiteSpace=wrap;html=1;align=center;fillColor=#dae8fc;strokeColor=#6c8ebf;" vertex="1" parent="1">
          <mxGeometry x="390" y="119" width="100" height="40" as="geometry" />
        </mxCell>
        <mxCell id="rDGSPAEo0IZQt4CO5zlP-32" style="edgeStyle=orthogonalEdgeStyle;rounded=0;orthogonalLoop=1;jettySize=auto;html=1;exitX=0.75;exitY=0;exitDx=0;exitDy=0;entryX=0;entryY=0.5;entryDx=0;entryDy=0;" edge="1" parent="1" source="rDGSPAEo0IZQt4CO5zlP-3" target="rDGSPAEo0IZQt4CO5zlP-8">
          <mxGeometry relative="1" as="geometry" />
        </mxCell>
        <mxCell id="rDGSPAEo0IZQt4CO5zlP-36" style="edgeStyle=orthogonalEdgeStyle;rounded=0;orthogonalLoop=1;jettySize=auto;html=1;exitX=0.5;exitY=0;exitDx=0;exitDy=0;entryX=0;entryY=0.5;entryDx=0;entryDy=0;" edge="1" parent="1" source="rDGSPAEo0IZQt4CO5zlP-3" target="rDGSPAEo0IZQt4CO5zlP-7">
          <mxGeometry relative="1" as="geometry" />
        </mxCell>
        <mxCell id="rDGSPAEo0IZQt4CO5zlP-37" style="edgeStyle=orthogonalEdgeStyle;rounded=0;orthogonalLoop=1;jettySize=auto;html=1;exitX=0.25;exitY=0;exitDx=0;exitDy=0;entryX=0;entryY=0.5;entryDx=0;entryDy=0;" edge="1" parent="1" source="rDGSPAEo0IZQt4CO5zlP-3" target="rDGSPAEo0IZQt4CO5zlP-10">
          <mxGeometry relative="1" as="geometry" />
        </mxCell>
        <mxCell id="rDGSPAEo0IZQt4CO5zlP-70" style="edgeStyle=orthogonalEdgeStyle;rounded=0;orthogonalLoop=1;jettySize=auto;html=1;exitX=1;exitY=0.5;exitDx=0;exitDy=0;entryX=0;entryY=0.5;entryDx=0;entryDy=0;" edge="1" parent="1" source="rDGSPAEo0IZQt4CO5zlP-3" target="rDGSPAEo0IZQt4CO5zlP-67">
          <mxGeometry relative="1" as="geometry" />
        </mxCell>
        <mxCell id="rDGSPAEo0IZQt4CO5zlP-79" style="edgeStyle=orthogonalEdgeStyle;rounded=0;orthogonalLoop=1;jettySize=auto;html=1;exitX=0.5;exitY=1;exitDx=0;exitDy=0;entryX=0;entryY=0.5;entryDx=0;entryDy=0;" edge="1" parent="1" source="rDGSPAEo0IZQt4CO5zlP-3" target="rDGSPAEo0IZQt4CO5zlP-69">
          <mxGeometry relative="1" as="geometry" />
        </mxCell>
        <mxCell id="rDGSPAEo0IZQt4CO5zlP-3" value="Clientes" style="rounded=1;arcSize=10;whiteSpace=wrap;html=1;align=center;fillColor=#dae8fc;strokeColor=#6c8ebf;" vertex="1" parent="1">
          <mxGeometry x="830" y="305" width="100" height="40" as="geometry" />
        </mxCell>
        <mxCell id="rDGSPAEo0IZQt4CO5zlP-43" style="edgeStyle=orthogonalEdgeStyle;rounded=0;orthogonalLoop=1;jettySize=auto;html=1;exitX=0;exitY=0.5;exitDx=0;exitDy=0;entryX=1;entryY=0.5;entryDx=0;entryDy=0;" edge="1" parent="1" source="rDGSPAEo0IZQt4CO5zlP-5" target="rDGSPAEo0IZQt4CO5zlP-25">
          <mxGeometry relative="1" as="geometry" />
        </mxCell>
        <mxCell id="rDGSPAEo0IZQt4CO5zlP-44" style="edgeStyle=orthogonalEdgeStyle;rounded=0;orthogonalLoop=1;jettySize=auto;html=1;exitX=0.25;exitY=0;exitDx=0;exitDy=0;entryX=1;entryY=0.5;entryDx=0;entryDy=0;" edge="1" parent="1" source="rDGSPAEo0IZQt4CO5zlP-5" target="rDGSPAEo0IZQt4CO5zlP-24">
          <mxGeometry relative="1" as="geometry" />
        </mxCell>
        <mxCell id="rDGSPAEo0IZQt4CO5zlP-45" style="edgeStyle=orthogonalEdgeStyle;rounded=0;orthogonalLoop=1;jettySize=auto;html=1;exitX=0.5;exitY=0;exitDx=0;exitDy=0;entryX=1;entryY=0.5;entryDx=0;entryDy=0;" edge="1" parent="1" source="rDGSPAEo0IZQt4CO5zlP-5" target="rDGSPAEo0IZQt4CO5zlP-23">
          <mxGeometry relative="1" as="geometry" />
        </mxCell>
        <mxCell id="rDGSPAEo0IZQt4CO5zlP-46" style="edgeStyle=orthogonalEdgeStyle;rounded=0;orthogonalLoop=1;jettySize=auto;html=1;exitX=0.25;exitY=1;exitDx=0;exitDy=0;entryX=1;entryY=0.5;entryDx=0;entryDy=0;" edge="1" parent="1" source="rDGSPAEo0IZQt4CO5zlP-5" target="rDGSPAEo0IZQt4CO5zlP-26">
          <mxGeometry relative="1" as="geometry" />
        </mxCell>
        <mxCell id="rDGSPAEo0IZQt4CO5zlP-47" style="edgeStyle=orthogonalEdgeStyle;rounded=0;orthogonalLoop=1;jettySize=auto;html=1;exitX=0.5;exitY=1;exitDx=0;exitDy=0;entryX=1;entryY=0.5;entryDx=0;entryDy=0;" edge="1" parent="1" source="rDGSPAEo0IZQt4CO5zlP-5" target="rDGSPAEo0IZQt4CO5zlP-27">
          <mxGeometry relative="1" as="geometry" />
        </mxCell>
        <mxCell id="rDGSPAEo0IZQt4CO5zlP-5" value="Proveedor" style="rounded=1;arcSize=10;whiteSpace=wrap;html=1;align=center;fillColor=#dae8fc;strokeColor=#6c8ebf;" vertex="1" parent="1">
          <mxGeometry x="390" y="581" width="100" height="40" as="geometry" />
        </mxCell>
        <mxCell id="rDGSPAEo0IZQt4CO5zlP-7" value="Nombre" style="ellipse;whiteSpace=wrap;html=1;align=center;" vertex="1" parent="1">
          <mxGeometry x="980" y="129" width="100" height="40" as="geometry" />
        </mxCell>
        <mxCell id="rDGSPAEo0IZQt4CO5zlP-8" value="Apellido" style="ellipse;whiteSpace=wrap;html=1;align=center;" vertex="1" parent="1">
          <mxGeometry x="980" y="188" width="100" height="40" as="geometry" />
        </mxCell>
        <mxCell id="rDGSPAEo0IZQt4CO5zlP-10" value="RUT" style="ellipse;whiteSpace=wrap;html=1;align=center;fontStyle=4;fillColor=#dae8fc;strokeColor=#6c8ebf;" vertex="1" parent="1">
          <mxGeometry x="980" y="70" width="100" height="40" as="geometry" />
        </mxCell>
        <mxCell id="rDGSPAEo0IZQt4CO5zlP-12" value="Dir_Calle" style="ellipse;whiteSpace=wrap;html=1;align=center;" vertex="1" parent="1">
          <mxGeometry x="1130" y="246" width="100" height="40" as="geometry" />
        </mxCell>
        <mxCell id="rDGSPAEo0IZQt4CO5zlP-14" value="Dir_Número&lt;span style=&quot;color: rgba(0, 0, 0, 0); font-family: monospace; font-size: 0px; text-align: start; text-wrap: nowrap;&quot;&gt;%3CmxGraphModel%3E%3Croot%3E%3CmxCell%20id%3D%220%22%2F%3E%3CmxCell%20id%3D%221%22%20parent%3D%220%22%2F%3E%3CmxCell%20id%3D%222%22%20value%3D%22Dir_Calle%22%20style%3D%22ellipse%3BwhiteSpace%3Dwrap%3Bhtml%3D1%3Balign%3Dcenter%3B%22%20vertex%3D%221%22%20parent%3D%221%22%3E%3CmxGeometry%20x%3D%22540%22%20y%3D%22320%22%20width%3D%22100%22%20height%3D%2240%22%20as%3D%22geometry%22%2F%3E%3C%2FmxCell%3E%3C%2Froot%3E%3C%2FmxGraphModel%3E&lt;/span&gt;" style="ellipse;whiteSpace=wrap;html=1;align=center;" vertex="1" parent="1">
          <mxGeometry x="1130" y="305" width="100" height="40" as="geometry" />
        </mxCell>
        <mxCell id="rDGSPAEo0IZQt4CO5zlP-15" value="Dir_Pasaje" style="ellipse;whiteSpace=wrap;html=1;align=center;" vertex="1" parent="1">
          <mxGeometry x="1130" y="364" width="100" height="40" as="geometry" />
        </mxCell>
        <mxCell id="rDGSPAEo0IZQt4CO5zlP-16" value="Nac_Día" style="ellipse;whiteSpace=wrap;html=1;align=center;" vertex="1" parent="1">
          <mxGeometry x="1130" y="424" width="100" height="40" as="geometry" />
        </mxCell>
        <mxCell id="rDGSPAEo0IZQt4CO5zlP-17" value="Nac_Mes" style="ellipse;whiteSpace=wrap;html=1;align=center;" vertex="1" parent="1">
          <mxGeometry x="1130" y="482" width="100" height="40" as="geometry" />
        </mxCell>
        <mxCell id="rDGSPAEo0IZQt4CO5zlP-18" value="Nac_Año" style="ellipse;whiteSpace=wrap;html=1;align=center;" vertex="1" parent="1">
          <mxGeometry x="1130" y="541" width="100" height="40" as="geometry" />
        </mxCell>
        <mxCell id="rDGSPAEo0IZQt4CO5zlP-20" value="Nombre" style="ellipse;whiteSpace=wrap;html=1;align=center;" vertex="1" parent="1">
          <mxGeometry x="240" y="119" width="100" height="40" as="geometry" />
        </mxCell>
        <mxCell id="rDGSPAEo0IZQt4CO5zlP-21" value="Precio_UN" style="ellipse;whiteSpace=wrap;html=1;align=center;" vertex="1" parent="1">
          <mxGeometry x="240" y="178" width="100" height="40" as="geometry" />
        </mxCell>
        <mxCell id="rDGSPAEo0IZQt4CO5zlP-22" value="Cod_Producto" style="ellipse;whiteSpace=wrap;html=1;align=center;fontStyle=4;fillColor=#dae8fc;strokeColor=#6c8ebf;" vertex="1" parent="1">
          <mxGeometry x="240" y="60" width="100" height="40" as="geometry" />
        </mxCell>
        <mxCell id="rDGSPAEo0IZQt4CO5zlP-23" value="RUT" style="ellipse;whiteSpace=wrap;html=1;align=center;fontStyle=4;fillColor=#dae8fc;strokeColor=#6c8ebf;" vertex="1" parent="1">
          <mxGeometry x="220" y="463" width="100" height="40" as="geometry" />
        </mxCell>
        <mxCell id="rDGSPAEo0IZQt4CO5zlP-24" value="Dirección" style="ellipse;whiteSpace=wrap;html=1;align=center;" vertex="1" parent="1">
          <mxGeometry x="220" y="522" width="100" height="40" as="geometry" />
        </mxCell>
        <mxCell id="rDGSPAEo0IZQt4CO5zlP-25" value="Nombre" style="ellipse;whiteSpace=wrap;html=1;align=center;" vertex="1" parent="1">
          <mxGeometry x="220" y="581" width="100" height="40" as="geometry" />
        </mxCell>
        <mxCell id="rDGSPAEo0IZQt4CO5zlP-26" value="Teléfono" style="ellipse;whiteSpace=wrap;html=1;align=center;" vertex="1" parent="1">
          <mxGeometry x="220" y="640" width="100" height="40" as="geometry" />
        </mxCell>
        <mxCell id="rDGSPAEo0IZQt4CO5zlP-27" value="Celular" style="ellipse;whiteSpace=wrap;html=1;align=center;" vertex="1" parent="1">
          <mxGeometry x="220" y="698" width="100" height="40" as="geometry" />
        </mxCell>
        <mxCell id="rDGSPAEo0IZQt4CO5zlP-52" style="edgeStyle=orthogonalEdgeStyle;rounded=0;orthogonalLoop=1;jettySize=auto;html=1;exitX=0;exitY=0.5;exitDx=0;exitDy=0;entryX=1;entryY=0.5;entryDx=0;entryDy=0;flowAnimation=1;" edge="1" parent="1" source="rDGSPAEo0IZQt4CO5zlP-49" target="rDGSPAEo0IZQt4CO5zlP-2">
          <mxGeometry relative="1" as="geometry" />
        </mxCell>
        <mxCell id="rDGSPAEo0IZQt4CO5zlP-56" style="edgeStyle=orthogonalEdgeStyle;rounded=0;orthogonalLoop=1;jettySize=auto;html=1;exitX=1;exitY=0.5;exitDx=0;exitDy=0;entryX=0;entryY=0.25;entryDx=0;entryDy=0;flowAnimation=1;" edge="1" parent="1" source="rDGSPAEo0IZQt4CO5zlP-49" target="rDGSPAEo0IZQt4CO5zlP-3">
          <mxGeometry relative="1" as="geometry" />
        </mxCell>
        <mxCell id="rDGSPAEo0IZQt4CO5zlP-49" value="Venta" style="shape=rhombus;perimeter=rhombusPerimeter;whiteSpace=wrap;html=1;align=center;" vertex="1" parent="1">
          <mxGeometry x="610" y="180" width="90" height="80" as="geometry" />
        </mxCell>
        <mxCell id="rDGSPAEo0IZQt4CO5zlP-59" style="edgeStyle=orthogonalEdgeStyle;rounded=0;orthogonalLoop=1;jettySize=auto;html=1;exitX=0.5;exitY=0;exitDx=0;exitDy=0;entryX=0.75;entryY=1;entryDx=0;entryDy=0;flowAnimation=1;" edge="1" parent="1" source="rDGSPAEo0IZQt4CO5zlP-50" target="rDGSPAEo0IZQt4CO5zlP-2">
          <mxGeometry relative="1" as="geometry" />
        </mxCell>
        <mxCell id="rDGSPAEo0IZQt4CO5zlP-60" style="edgeStyle=orthogonalEdgeStyle;rounded=0;orthogonalLoop=1;jettySize=auto;html=1;exitX=0.5;exitY=1;exitDx=0;exitDy=0;entryX=0.75;entryY=0;entryDx=0;entryDy=0;flowAnimation=1;" edge="1" parent="1" source="rDGSPAEo0IZQt4CO5zlP-50" target="rDGSPAEo0IZQt4CO5zlP-5">
          <mxGeometry relative="1" as="geometry" />
        </mxCell>
        <mxCell id="rDGSPAEo0IZQt4CO5zlP-50" value="Suministra" style="shape=rhombus;perimeter=rhombusPerimeter;whiteSpace=wrap;html=1;align=center;" vertex="1" parent="1">
          <mxGeometry x="420" y="305" width="90" height="80" as="geometry" />
        </mxCell>
        <mxCell id="rDGSPAEo0IZQt4CO5zlP-61" value="1:N" style="text;html=1;align=center;verticalAlign=middle;resizable=0;points=[];autosize=1;strokeColor=none;fillColor=none;shadow=0;glass=0;" vertex="1" parent="1">
          <mxGeometry x="460" y="532" width="40" height="30" as="geometry" />
        </mxCell>
        <mxCell id="rDGSPAEo0IZQt4CO5zlP-62" value="1:1" style="text;html=1;align=center;verticalAlign=middle;resizable=0;points=[];autosize=1;strokeColor=none;fillColor=none;shadow=0;glass=0;" vertex="1" parent="1">
          <mxGeometry x="460" y="183" width="40" height="30" as="geometry" />
        </mxCell>
        <mxCell id="rDGSPAEo0IZQt4CO5zlP-63" value="1:N" style="text;html=1;align=center;verticalAlign=middle;resizable=0;points=[];autosize=1;strokeColor=none;fillColor=none;shadow=0;glass=0;" vertex="1" parent="1">
          <mxGeometry x="510" y="334" width="40" height="30" as="geometry" />
        </mxCell>
        <mxCell id="rDGSPAEo0IZQt4CO5zlP-64" value="1:N" style="text;html=1;align=center;verticalAlign=middle;resizable=0;points=[];autosize=1;strokeColor=none;fillColor=none;shadow=0;glass=0;" vertex="1" parent="1">
          <mxGeometry x="520" y="110" width="40" height="30" as="geometry" />
        </mxCell>
        <mxCell id="rDGSPAEo0IZQt4CO5zlP-65" value="1:N" style="text;html=1;align=center;verticalAlign=middle;resizable=0;points=[];autosize=1;strokeColor=none;fillColor=none;shadow=0;glass=0;" vertex="1" parent="1">
          <mxGeometry x="790" y="270" width="40" height="30" as="geometry" />
        </mxCell>
        <mxCell id="rDGSPAEo0IZQt4CO5zlP-66" value="N:N" style="text;html=1;align=center;verticalAlign=middle;resizable=0;points=[];autosize=1;strokeColor=none;fillColor=none;shadow=0;glass=0;" vertex="1" parent="1">
          <mxGeometry x="635" y="140" width="40" height="30" as="geometry" />
        </mxCell>
        <mxCell id="rDGSPAEo0IZQt4CO5zlP-71" style="edgeStyle=orthogonalEdgeStyle;rounded=0;orthogonalLoop=1;jettySize=auto;html=1;exitX=1;exitY=0;exitDx=0;exitDy=0;entryX=0;entryY=0.5;entryDx=0;entryDy=0;" edge="1" parent="1" source="rDGSPAEo0IZQt4CO5zlP-67" target="rDGSPAEo0IZQt4CO5zlP-12">
          <mxGeometry relative="1" as="geometry" />
        </mxCell>
        <mxCell id="rDGSPAEo0IZQt4CO5zlP-72" style="edgeStyle=orthogonalEdgeStyle;rounded=0;orthogonalLoop=1;jettySize=auto;html=1;exitX=1;exitY=0.5;exitDx=0;exitDy=0;entryX=0;entryY=0.5;entryDx=0;entryDy=0;" edge="1" parent="1" source="rDGSPAEo0IZQt4CO5zlP-67" target="rDGSPAEo0IZQt4CO5zlP-14">
          <mxGeometry relative="1" as="geometry" />
        </mxCell>
        <mxCell id="rDGSPAEo0IZQt4CO5zlP-73" style="edgeStyle=orthogonalEdgeStyle;rounded=0;orthogonalLoop=1;jettySize=auto;html=1;exitX=1;exitY=1;exitDx=0;exitDy=0;entryX=0;entryY=0.5;entryDx=0;entryDy=0;" edge="1" parent="1" source="rDGSPAEo0IZQt4CO5zlP-67" target="rDGSPAEo0IZQt4CO5zlP-15">
          <mxGeometry relative="1" as="geometry" />
        </mxCell>
        <mxCell id="rDGSPAEo0IZQt4CO5zlP-67" value="Dirección" style="ellipse;whiteSpace=wrap;html=1;align=center;" vertex="1" parent="1">
          <mxGeometry x="990" y="305" width="100" height="40" as="geometry" />
        </mxCell>
        <mxCell id="rDGSPAEo0IZQt4CO5zlP-74" style="edgeStyle=orthogonalEdgeStyle;rounded=0;orthogonalLoop=1;jettySize=auto;html=1;exitX=1;exitY=0;exitDx=0;exitDy=0;entryX=0;entryY=0.5;entryDx=0;entryDy=0;" edge="1" parent="1" source="rDGSPAEo0IZQt4CO5zlP-69" target="rDGSPAEo0IZQt4CO5zlP-16">
          <mxGeometry relative="1" as="geometry" />
        </mxCell>
        <mxCell id="rDGSPAEo0IZQt4CO5zlP-75" style="edgeStyle=orthogonalEdgeStyle;rounded=0;orthogonalLoop=1;jettySize=auto;html=1;exitX=1;exitY=0.5;exitDx=0;exitDy=0;entryX=0;entryY=0.5;entryDx=0;entryDy=0;" edge="1" parent="1" source="rDGSPAEo0IZQt4CO5zlP-69" target="rDGSPAEo0IZQt4CO5zlP-17">
          <mxGeometry relative="1" as="geometry" />
        </mxCell>
        <mxCell id="rDGSPAEo0IZQt4CO5zlP-78" style="edgeStyle=orthogonalEdgeStyle;rounded=0;orthogonalLoop=1;jettySize=auto;html=1;exitX=1;exitY=1;exitDx=0;exitDy=0;entryX=0;entryY=0.5;entryDx=0;entryDy=0;" edge="1" parent="1" source="rDGSPAEo0IZQt4CO5zlP-69" target="rDGSPAEo0IZQt4CO5zlP-18">
          <mxGeometry relative="1" as="geometry" />
        </mxCell>
        <mxCell id="rDGSPAEo0IZQt4CO5zlP-69" value="F_Nacimiento" style="ellipse;whiteSpace=wrap;html=1;align=center;" vertex="1" parent="1">
          <mxGeometry x="990" y="482" width="100" height="40" as="geometry" />
        </mxCell>
      </root>
    </mxGraphModel>
  </diagram>
</mxfile>
